<svg version="1.1" id="Layer_1" xmlns="http://www.w3.org/2000/svg" xmlns:xlink="http://www.w3.org/1999/xlink" x="0px" y="0px"
                        width="230px" height="100px" viewBox="0 0 230 100" enable-background="new 0 0 230 100" xml:space="preserve">
                        <path fill-rule="evenodd" clip-rule="evenodd" d="M142.988,82.389h-15.823l-0.266-0.007l-0.227,0.007h-5.076l-0.571,0.6l-0.84,0.853
                            l-0.857,0.839l-0.863,0.828l-0.881,0.814l-0.889,0.801l-0.899,0.79l-0.911,0.781l-0.921,0.77l-0.934,0.763l-0.94,0.75l-0.952,0.742
                            l-0.961,0.734l-0.972,0.728l-0.979,0.723l-0.979,0.708l-4.394,3.15L98.323,94.8l-1.053-0.697l-1.053-0.714l-1.041-0.718l-1.029-0.73
                            l-1.015-0.738l-1.002-0.747l-0.989-0.757l-0.977-0.768l-0.962-0.781l-0.948-0.792l-0.937-0.806l-0.92-0.817l-0.906-0.831
                            l-0.892-0.848l-0.874-0.857l-0.862-0.877l-2.307,0.067h-7.623l-0.265-0.007l-0.227,0.007H66.11l-0.354-0.01l-0.05-0.002h-7.395
                            l-0.34,0.012H33.45V64.626h5.669l-7.626-6.393v7.642H5.979V32.273h42.258l0.278,0.005l0.316,0.01l0.313,0.018l0.314,0.026
                            l0.312,0.031l0.312,0.042l0.311,0.046l0.315,0.056l0.313,0.064l0.312,0.072l0.305,0.08l0.305,0.085l0.307,0.097l0.301,0.101
                            l0.299,0.11l0.296,0.117l0.279,0.12l0.271,0.121l0.27,0.128l0.271,0.138l0.264,0.141l0.26,0.146l0.26,0.154l0.258,0.16l0.253,0.168
                            l0.252,0.174l0.243,0.178l0.237,0.183l0.241,0.192l0.231,0.196l0.225,0.199l0.224,0.21l0.067,0.065l0.166-0.131l0.321-0.238
                            l0.326-0.231l0.332-0.224l0.339-0.215l0.34-0.208l0.344-0.199l0.352-0.19l0.358-0.185l0.355-0.176l0.36-0.167l0.36-0.154l0.21-0.087
                            l0.191-0.077l0.195-0.074l0.197-0.075l0.197-0.071l0.199-0.066l0.199-0.067l0.208-0.065l0.208-0.062l0.198-0.056l0.201-0.055
                            l0.203-0.053l0.204-0.05l0.207-0.048l0.206-0.044l0.066-0.013l-0.027-0.921l-0.031-1.735l-0.008-1.761l0.012-1.79l0.034-1.822
                            l0.057-1.848l0.076-1.878l0.098-1.911l0.121-1.925l0.657-9.748l9.353,2.684l0.435,0.123l0.416,0.112l0.414,0.105l0.408,0.1
                            l0.408,0.093l0.404,0.089l0.404,0.082l0.399,0.075l0.397,0.071l0.393,0.064l0.392,0.059l0.389,0.052l0.384,0.048l0.381,0.04
                            l0.381,0.037l0.379,0.029l0.376,0.026l0.371,0.017l0.368,0.014l0.368,0.006l0.365,0.002l0.363-0.003l0.359-0.01l0.357-0.015
                            l0.356-0.022l0.353-0.026l0.35-0.031l0.347-0.039l0.348-0.043l0.342-0.047l0.343-0.055l0.341-0.061l0.339-0.064l0.333-0.071
                            l0.336-0.076l0.335-0.081l0.333-0.089l0.332-0.094l0.331-0.101l0.332-0.105l0.33-0.112l0.328-0.117l0.329-0.125l0.33-0.129
                            l0.327-0.137l0.328-0.142l0.327-0.151l0.328-0.156l0.331-0.165l0.327-0.167l0.326-0.177l0.325-0.183l0.33-0.19l0.327-0.197
                            l0.325-0.205l0.331-0.212l0.329-0.22l0.326-0.227l0.328-0.233l0.33-0.243l0.329-0.251l0.33-0.258l0.329-0.266l0.347-0.289
                            l4.767-4.026l4.999,3.735l0.375,0.279l0.362,0.26l0.363,0.258l0.36,0.25l0.361,0.243l0.359,0.235l0.36,0.233l0.359,0.224l0.36,0.219
                            l0.355,0.212l0.354,0.204l0.356,0.201l0.355,0.192l0.355,0.186l0.352,0.18l0.352,0.175l0.354,0.17l0.351,0.16l0.351,0.157
                            l0.349,0.147l0.348,0.144l0.346,0.137l0.349,0.13l0.347,0.127l0.345,0.118l0.346,0.111l0.344,0.106l0.344,0.1l0.346,0.095
                            l0.34,0.088l0.345,0.083l0.344,0.076l0.34,0.07l0.34,0.063l0.339,0.059l0.341,0.052l0.341,0.045l0.341,0.043l0.341,0.035l0.343,0.03
                            l0.344,0.022l0.343,0.018l0.345,0.012l0.348,0.006h0.346l0.348-0.006l0.35-0.012l0.352-0.02l0.354-0.024l0.354-0.028l0.355-0.039
                            l0.356-0.043l0.36-0.048l0.363-0.057l0.361-0.063l0.367-0.071l0.368-0.075l0.371-0.082l0.373-0.09l0.376-0.098l0.378-0.104
                            l0.383-0.111l0.38-0.117l0.409-0.134l9.622-3.223l0.711,10.167l0.128,1.938l0.102,1.923l0.079,1.891l0.057,1.86l0.037,1.83
                            l0.009,1.798l-0.013,1.769l-0.035,1.74l-0.037,1.123l0.151,0.041l0.201,0.06l0.201,0.064l0.195,0.064l0.198,0.066l0.196,0.069
                            l0.195,0.072l0.193,0.077l0.19,0.075l0.209,0.084l0.357,0.157l0.281,0.129v30.371l-0.129,0.063l-0.352,0.165l-0.206,0.092
                            l-0.192,0.085h-0.001h0.88V82.389L142.988,82.389z M143.427,34.064l-0.359-0.177l-0.079-0.037v30.371l0.234-0.116l0.357-0.189
                            l0.286-0.159v0.869h-0.878v17.763h23.858l12.448-13.449h-15.056v-3.064h18.02h0.194l0.214-0.004l0.216-0.007l0.212-0.008
                            l0.214-0.013l0.216-0.016l0.208-0.016l0.209-0.021l0.215-0.023l0.215-0.025l0.214-0.031l0.21-0.031l0.211-0.037l0.212-0.035
                            l0.209-0.039l0.21-0.042l0.207-0.048l0.209-0.049l0.208-0.053l0.205-0.053l0.208-0.06l0.21-0.06l0.205-0.063l0.199-0.063l0.2-0.068
                            l0.203-0.073l0.205-0.073l0.197-0.076l0.198-0.079l0.204-0.083l0.192-0.085l0.205-0.092l0.353-0.165l0.36-0.179l0.356-0.189
                            l0.352-0.194l0.348-0.203l0.344-0.213l0.338-0.219l0.333-0.23l0.325-0.234l0.321-0.245l0.315-0.252l0.309-0.262l0.303-0.267
                            l0.294-0.272l0.288-0.282l0.282-0.289l0.271-0.29l0.269-0.3l0.256-0.303l0.25-0.308l0.244-0.313l0.239-0.322l0.226-0.325l0.222-0.33
                            l0.214-0.337l0.206-0.34l0.197-0.345l0.19-0.347l0.183-0.356l0.174-0.359l0.163-0.359l0.157-0.355l0.087-0.207l0.077-0.196
                            l0.075-0.19l0.073-0.202l0.07-0.198l0.069-0.2l0.064-0.199l0.063-0.204l0.063-0.206l0.056-0.201l0.055-0.196l0.055-0.208
                            l0.047-0.202l0.051-0.207l0.044-0.206l0.043-0.209l0.039-0.208l0.038-0.208l0.034-0.207l0.031-0.209l0.029-0.205l0.026-0.21
                            l0.024-0.212l0.02-0.208l0.021-0.209l0.017-0.21l0.012-0.212l0.011-0.21l0.011-0.209l0.005-0.21l0.005-0.212l0.002-0.211
                            l-0.002-0.211l-0.005-0.212l-0.005-0.208l-0.011-0.21l-0.011-0.209l-0.012-0.212l-0.018-0.21l-0.02-0.211l-0.02-0.209l-0.024-0.209
                            l-0.029-0.208l-0.027-0.209l-0.034-0.21l-0.033-0.208l-0.036-0.205l-0.042-0.207l-0.042-0.211l-0.046-0.207l-0.049-0.206
                            l-0.051-0.205l-0.057-0.205l-0.054-0.2l-0.06-0.198l-0.063-0.21l-0.065-0.205l-0.068-0.197l-0.069-0.199l-0.072-0.2l-0.075-0.2
                            l-0.079-0.192l-0.077-0.193l-0.092-0.21l-0.159-0.353l-0.167-0.354l-0.181-0.352l-0.184-0.35l-0.196-0.344l-0.198-0.337
                            l-0.212-0.334l-0.216-0.331l-0.227-0.326l-0.235-0.318l-0.236-0.313l-0.254-0.309l-0.252-0.299l-0.263-0.297l-0.268-0.289
                            l-0.278-0.284l-0.288-0.283l-0.295-0.271l-0.3-0.266l-0.307-0.257l-0.312-0.252l-0.32-0.24l-0.324-0.234l-0.333-0.228l-0.338-0.217
                            l-0.34-0.211l-0.344-0.201l-0.353-0.193l-0.355-0.185l-0.359-0.177l-0.361-0.166l-0.358-0.157l-0.205-0.084l-0.191-0.075
                            l-0.193-0.077l-0.198-0.072l-0.195-0.069l-0.196-0.066l-0.196-0.064l-0.2-0.064l-0.201-0.06l-0.195-0.055l-0.202-0.055l-0.201-0.051
                            l-0.204-0.049l-0.205-0.048l-0.198-0.043l-0.205-0.04l-0.206-0.041l-0.199-0.036l-0.206-0.033l-0.207-0.033l-0.21-0.028
                            l-0.206-0.026l-0.2-0.021l-0.208-0.021l-0.211-0.018l-0.203-0.017l-0.204-0.012l-0.211-0.012l-0.205-0.008l-0.206-0.006
                            l-0.208-0.004l-0.188-0.003h-38.399v2.023l-0.083-0.048L143.427,34.064z"/>
                        <polygon fill-rule="evenodd" clip-rule="evenodd" fill="#FFFFFF" points="166.415,52.426 166.813,51.987 174.317,51.987 
                            174.422,51.987 174.516,51.983 174.6,51.979 174.684,51.974 174.766,51.963 174.849,51.957 174.924,51.944 175.004,51.933 
                            175.078,51.917 175.151,51.901 175.223,51.886 175.292,51.867 175.364,51.847 175.434,51.823 175.498,51.802 175.565,51.777 
                            175.633,51.752 175.696,51.724 175.761,51.696 175.822,51.666 175.889,51.631 175.951,51.598 176.013,51.563 176.076,51.523 
                            176.14,51.483 176.201,51.442 176.266,51.397 176.332,51.352 176.396,51.301 176.458,51.246 176.523,51.192 176.587,51.137 
                            176.646,51.083 176.698,51.03 176.749,50.98 176.799,50.927 176.843,50.876 176.885,50.827 176.924,50.776 176.963,50.725 
                            176.997,50.676 177.032,50.626 177.061,50.579 177.091,50.528 177.119,50.477 177.146,50.425 177.171,50.373 177.196,50.322 
                            177.216,50.27 177.236,50.216 177.257,50.16 177.277,50.102 177.293,50.043 177.31,49.982 177.325,49.917 177.34,49.849 
                            177.353,49.785 177.362,49.711 177.374,49.639 177.379,49.564 177.387,49.484 177.392,49.399 177.394,49.316 177.396,49.227 
                            177.394,49.141 177.392,49.051 177.387,48.965 177.379,48.883 177.374,48.807 177.362,48.729 177.352,48.656 177.34,48.587 
                            177.325,48.519 177.31,48.451 177.291,48.385 177.273,48.323 177.256,48.264 177.236,48.205 177.212,48.144 177.19,48.088 
                            177.168,48.034 177.142,47.979 177.112,47.922 177.084,47.87 177.054,47.818 177.021,47.762 176.985,47.71 176.952,47.658 
                            176.915,47.607 176.872,47.552 176.829,47.496 176.785,47.444 176.739,47.39 176.688,47.333 176.629,47.278 176.575,47.225 
                            176.516,47.169 176.452,47.114 176.391,47.059 176.331,47.011 176.271,46.966 176.211,46.921 176.148,46.879 176.091,46.841 
                            176.031,46.804 175.974,46.767 175.909,46.732 175.848,46.7 175.79,46.67 175.729,46.643 175.667,46.615 175.607,46.589 
                            175.547,46.566 175.479,46.543 175.413,46.521 175.35,46.503 175.284,46.485 175.213,46.468 175.142,46.453 175.072,46.439 
                            174.999,46.426 174.92,46.414 174.843,46.405 174.763,46.397 174.68,46.392 174.594,46.385 174.507,46.383 174.402,46.383 
                            166.415,46.383 "/>
                        <polygon fill-rule="evenodd" clip-rule="evenodd" fill="#FFFFFF" points="100.538,42.541 98.868,44.468 98.868,45.038 
                            99.766,45.038 99.766,45.974 100.538,45.974 "/>
                        <polygon fill-rule="evenodd" clip-rule="evenodd" fill="#FFFFFF" points="102.572,29.647 102.572,30.584 98.833,30.584 
                            98.833,31.016 99.766,31.016 99.766,35.332 106.743,35.332 106.743,34.794 106.131,33.568 105.418,32.144 103.941,30.663 
                            103.941,29.647 "/>
                        <polygon fill-rule="evenodd" clip-rule="evenodd" fill="#FFFFFF" points="55.271,54.929 55.176,54.73 55.041,54.427 54.97,54.26 
                            54.905,54.102 54.842,53.942 54.781,53.779 54.72,53.617 54.664,53.453 54.609,53.29 54.554,53.125 54.505,52.957 54.455,52.792 
                            54.409,52.626 54.371,52.489 54.195,52.62 54.004,52.754 53.809,52.882 53.613,53.005 53.417,53.125 53.214,53.238 53.176,53.26 "/>
                        <path fill-rule="evenodd" clip-rule="evenodd" fill="#FFFFFF" d="M146.922,56.921l-0.146,0.211l-0.195,0.265l-0.201,0.258
                            l-0.204,0.253l-0.212,0.251l-0.218,0.243l-0.224,0.241l-0.232,0.235l-0.234,0.229l-0.243,0.225l-0.245,0.218l-0.251,0.212
                            l-0.259,0.206l-0.262,0.199l-0.268,0.193l-0.271,0.187l-0.275,0.182l-0.279,0.173l-0.287,0.166l-0.287,0.16l-0.296,0.158
                            l-0.299,0.146l-0.293,0.14l-0.164,0.07l-0.157,0.068l-0.162,0.067l-0.16,0.063l-0.161,0.064l-0.163,0.057l-0.162,0.059l-0.163,0.056
                            l-0.164,0.053l-0.163,0.051l-0.169,0.047l-0.166,0.048l-0.167,0.043l-0.167,0.043l-0.17,0.038l-0.166,0.039l-0.168,0.034
                            l-0.172,0.03l-0.171,0.032l-0.168,0.028l-0.171,0.023l-0.172,0.024l-0.173,0.021l-0.171,0.019l-0.173,0.018l-0.173,0.013
                            l-0.176,0.015l-0.173,0.008l-0.175,0.009l-0.174,0.006l-0.175,0.003h-0.165h-4.733l-0.308,0.689l-0.522,1.111l-0.544,1.096
                            l-0.562,1.075l-0.486,0.89h32.473v4.315h11.119l-6.792,7.334l-38.313-0.028h-0.005l-6.818,0.028h-0.103l-0.646,0.697l-0.793,0.83
                            l-0.808,0.821l-0.822,0.806l-0.834,0.796l-0.846,0.784l-0.859,0.773l-0.868,0.768l-0.885,0.755l-0.895,0.745l-0.904,0.738
                            l-0.917,0.732l-0.927,0.722l-0.937,0.718l-0.948,0.71l-0.959,0.707l-0.964,0.696l-2.686,1.929l-2.773-1.813l-1.035-0.685
                            l-1.027-0.694l-1.012-0.701l-0.997-0.71l-0.987-0.713l-0.971-0.725l-0.959-0.735l-0.943-0.741l-0.927-0.754l-0.914-0.763
                            l-0.898-0.774l-0.884-0.787l-0.869-0.795l-0.857-0.811l-0.837-0.821L85.061,80.2l-0.807-0.852l-0.017-0.018H72.966v-0.028H72.96
                            l-0.297,0.021l-0.259,0.007h-6.26l-0.249-0.007l-0.083-0.004H58.26l-0.34,0.011H36.505V67.682h39.271l-0.452-0.833l-0.562-1.088
                            l-0.541-1.106l-0.52-1.119l-0.311-0.715c-10.612,0-21.019-0.177-31.722-0.043L28.439,51.685V62.82H9.034V35.33H48.22l0.227,0.004
                            l0.244,0.007l0.242,0.014l0.241,0.021l0.242,0.023l0.239,0.033l0.24,0.034l0.237,0.043l0.24,0.048l0.236,0.055l0.234,0.061
                            l0.232,0.066l0.23,0.071l0.229,0.077l0.229,0.085l0.224,0.089l0.216,0.092l0.209,0.094l0.208,0.099l0.208,0.105l0.203,0.108
                            l0.2,0.114l0.199,0.117l0.196,0.123l0.194,0.125l0.188,0.133l0.187,0.136l0.182,0.14l0.181,0.147l0.177,0.148l0.172,0.151
                            l0.169,0.16l0.167,0.161l0.165,0.168l0.161,0.174l0.154,0.176l0.152,0.181l0.146,0.185l0.142,0.187l0.136,0.191l0.132,0.195
                            l0.127,0.197l0.124,0.203l0.117,0.204l0.115,0.206l0.005,0.014l0.003-0.002l0.208-0.254l0.217-0.249l0.222-0.244l0.226-0.237
                            l0.235-0.231l0.237-0.228l0.243-0.219l0.249-0.214l0.253-0.207l0.256-0.201l0.264-0.193l0.266-0.191l0.274-0.184l0.277-0.178
                            l0.279-0.171l0.286-0.163l0.289-0.158l0.295-0.152l0.294-0.144l0.301-0.139l0.301-0.132l0.167-0.069l0.158-0.063l0.16-0.06
                            l0.16-0.06l0.163-0.058l0.163-0.054l0.164-0.054l0.164-0.053l0.169-0.049l0.165-0.048l0.163-0.044l0.166-0.043l0.169-0.041
                            l0.167-0.039l0.168-0.037l0.17-0.036l0.17-0.032l0.169-0.03l0.168-0.028l0.171-0.027l0.171-0.021l0.172-0.023l0.173-0.02
                            l0.172-0.019l0.173-0.014l0.171-0.015l0.175-0.011l0.174-0.01l0.174-0.008l0.174-0.005h0.027l-0.021-0.399l-0.073-1.635
                            l-0.049-1.666l-0.029-1.696l-0.01-1.724l0.013-1.753l0.032-1.785l0.054-1.816l0.077-1.843l0.096-1.88l0.12-1.903l0.402-5.964
                            l5.723,1.645l0.461,0.128l0.45,0.12l0.449,0.115l0.446,0.108l0.444,0.103l0.441,0.095l0.439,0.09l0.438,0.083l0.436,0.078
                            l0.435,0.072l0.433,0.064l0.429,0.059l0.427,0.053l0.425,0.046l0.424,0.039l0.42,0.035l0.422,0.026l0.418,0.021l0.414,0.015
                            l0.413,0.006l0.412,0.003l0.41-0.006l0.407-0.009l0.406-0.017l0.404-0.025l0.401-0.028l0.402-0.038l0.396-0.043l0.398-0.048
                            l0.395-0.056l0.392-0.063l0.39-0.069l0.391-0.076l0.386-0.079l0.386-0.088l0.387-0.097l0.383-0.102l0.381-0.108l0.379-0.114
                            l0.383-0.122l0.379-0.128l0.377-0.135l0.376-0.141l0.379-0.15l0.374-0.157l0.376-0.162l0.374-0.171l0.373-0.179l0.375-0.185
                            l0.372-0.193l0.372-0.2l0.37-0.205l0.371-0.214l0.369-0.224l0.366-0.231l0.37-0.237l0.369-0.247l0.367-0.251l0.365-0.263
                            l0.366-0.269l0.366-0.279l0.365-0.287l0.363-0.294l0.373-0.309l2.919-2.465l3.06,2.286l0.395,0.292l0.389,0.28l0.387,0.275
                            l0.391,0.268l0.389,0.264l0.387,0.256l0.392,0.249l0.388,0.245l0.388,0.237l0.388,0.231l0.392,0.224l0.388,0.218l0.389,0.211
                            l0.389,0.206l0.39,0.199l0.389,0.193l0.393,0.186l0.386,0.18l0.388,0.171l0.393,0.168l0.389,0.16l0.391,0.153l0.388,0.146
                            l0.389,0.141l0.391,0.133l0.389,0.126l0.392,0.122l0.389,0.112l0.39,0.108l0.392,0.1l0.391,0.093l0.391,0.089l0.39,0.079
                            l0.391,0.076l0.39,0.064l0.393,0.061l0.39,0.052l0.394,0.048l0.393,0.041l0.393,0.034l0.399,0.027l0.394,0.021l0.397,0.013
                            l0.397,0.006h0.4l0.399-0.006l0.402-0.013l0.403-0.021l0.406-0.029l0.403-0.034l0.408-0.043l0.411-0.048l0.411-0.057l0.412-0.065
                            l0.412-0.069l0.417-0.08l0.418-0.086l0.419-0.094l0.421-0.102l0.423-0.108l0.425-0.117l0.427-0.125l0.429-0.132l0.443-0.146
                            l5.889-1.971l0.437,6.219l0.122,1.915l0.103,1.888l0.079,1.856l0.056,1.823l0.034,1.793l0.008,1.761l-0.009,1.729l-0.037,1.699
                            l-0.057,1.669l-0.076,1.641l-0.026,0.399l0.155,0.016l0.167,0.02l0.168,0.022l0.171,0.022l0.166,0.025l0.168,0.029l0.164,0.028
                            l0.168,0.033l0.168,0.034l0.164,0.035l0.165,0.039l0.165,0.039l0.162,0.045l0.163,0.042l0.162,0.046l0.165,0.048l0.161,0.052
                            l0.16,0.05l0.157,0.054l0.162,0.059l0.157,0.057l0.159,0.059l0.155,0.064l0.163,0.065l0.299,0.131l0.298,0.137l0.294,0.146
                            l0.292,0.151l0.288,0.159l0.28,0.163l0.278,0.169l0.274,0.18l0.269,0.184l0.264,0.188l0.26,0.197l0.256,0.204l0.248,0.209
                            l0.244,0.215l0.237,0.222l0.234,0.229l0.229,0.232l0.218,0.237l0.214,0.24l0.208,0.245l0.202,0.253l0.196,0.255l0.183,0.249V35.33
                            h35.332l0.161,0.001l0.175,0.002l0.171,0.005l0.17,0.008l0.17,0.01l0.17,0.011l0.168,0.014l0.171,0.015l0.173,0.018l0.165,0.02
                            l0.168,0.022l0.17,0.022l0.169,0.025l0.169,0.029l0.163,0.028l0.168,0.033l0.167,0.034l0.166,0.035l0.162,0.039l0.165,0.039
                            l0.165,0.045l0.161,0.042l0.162,0.046l0.163,0.048l0.163,0.052l0.157,0.05l0.16,0.054l0.159,0.059l0.162,0.057l0.155,0.059
                            l0.155,0.064l0.165,0.065l0.298,0.131l0.299,0.137l0.293,0.146l0.293,0.151l0.288,0.159l0.278,0.163l0.279,0.169l0.272,0.18
                            l0.271,0.184l0.264,0.188l0.261,0.197l0.254,0.204l0.246,0.209l0.246,0.215l0.239,0.222l0.234,0.229l0.224,0.232l0.221,0.237
                            l0.215,0.241l0.208,0.245l0.204,0.253l0.195,0.255l0.189,0.259l0.184,0.266l0.182,0.27l0.171,0.272l0.163,0.278l0.161,0.283
                            l0.153,0.287l0.147,0.29l0.139,0.293l0.132,0.294l0.072,0.166l0.064,0.157l0.06,0.155l0.062,0.162l0.058,0.159l0.058,0.16
                            l0.054,0.163l0.056,0.164l0.05,0.166l0.046,0.163l0.046,0.161l0.044,0.167l0.041,0.165l0.039,0.167l0.037,0.167l0.037,0.172
                            l0.031,0.167l0.028,0.169l0.031,0.169l0.026,0.17l0.023,0.17l0.022,0.171l0.018,0.173l0.02,0.171l0.017,0.173l0.013,0.171
                            l0.011,0.174l0.009,0.176l0.009,0.172l0.006,0.173l0.001,0.175l0.002,0.174l-0.002,0.176l-0.001,0.173l-0.006,0.175l-0.009,0.174
                            l-0.009,0.175l-0.011,0.174l-0.013,0.172l-0.017,0.173l-0.016,0.172l-0.021,0.172l-0.022,0.172l-0.023,0.172l-0.025,0.17
                            l-0.029,0.17l-0.029,0.169l-0.032,0.169l-0.034,0.171l-0.039,0.167l-0.04,0.169l-0.037,0.168l-0.044,0.165l-0.046,0.164
                            l-0.047,0.164l-0.05,0.167l-0.052,0.165l-0.053,0.162l-0.057,0.163l-0.056,0.163l-0.062,0.163l-0.06,0.158l-0.065,0.156
                            l-0.067,0.168l-0.131,0.299l-0.138,0.303l-0.146,0.296l-0.151,0.294l-0.156,0.289l-0.163,0.282l-0.171,0.281l-0.175,0.278
                            l-0.182,0.273l-0.188,0.267l-0.194,0.265l-0.199,0.258l-0.207,0.253l-0.213,0.251l-0.217,0.244l-0.225,0.24l-0.229,0.235
                            l-0.239,0.229l-0.239,0.225l-0.248,0.218l-0.252,0.212l-0.257,0.206l-0.26,0.199l-0.268,0.193l-0.271,0.187l-0.277,0.182
                            l-0.281,0.173l-0.284,0.166l-0.289,0.16l-0.293,0.158l-0.301,0.146l-0.293,0.14l-0.164,0.07l-0.157,0.068l-0.16,0.067l-0.161,0.063
                            l-0.164,0.064l-0.16,0.057l-0.165,0.059l-0.16,0.056l-0.162,0.053l-0.165,0.051l-0.167,0.047l-0.17,0.048l-0.165,0.043l-0.167,0.043
                            l-0.168,0.038l-0.169,0.039l-0.167,0.034l-0.17,0.03l-0.172,0.032l-0.172,0.028l-0.169,0.023l-0.173,0.024l-0.173,0.021
                            l-0.172,0.019l-0.171,0.018l-0.173,0.013l-0.175,0.015l-0.173,0.008l-0.172,0.009l-0.178,0.006l-0.176,0.003h-0.162h-35.331V56.921z
                            "/>
                        <path fill-rule="evenodd" clip-rule="evenodd" fill="#D81F26" d="M102.361,11.66c9.217,6.886,19.077,9.504,29.875,5.888
                            c2.8,40.01-9.662,56.373-29.589,70.668C81.351,74.286,69.805,57.345,72.484,17.548C83.372,20.67,93.42,19.209,102.361,11.66z"/>
                        <path fill-rule="evenodd" clip-rule="evenodd" d="M102.365,90.137l-0.683-0.446c-10.904-7.13-19.325-15.06-24.699-26.347
                            c-5.343-11.223-7.617-25.689-6.256-45.913l0.146-2.178l2.093,0.601c5.193,1.489,10.16,1.888,14.87,1.023
                            c4.688-0.864,9.16-2.992,13.386-6.562l1.074-0.906l0.069,0.052v4.464c-4.381,3.429-9.024,5.516-13.895,6.412
                            c-4.62,0.85-9.413,0.625-14.357-0.539c-1.024,18.455,1.156,31.735,6.056,42.025c4.848,10.181,12.411,17.507,22.196,24.086V90.137
                            L102.365,90.137z M103.416,10.246l-1.051-0.784v4.464l0.055-0.042c4.464,3.153,9.09,5.35,13.92,6.383
                            c4.594,0.983,9.344,0.91,14.279-0.396c1.054,18.508-1.309,31.682-6.241,41.889c-4.927,10.196-12.48,17.521-21.777,24.313
                            l-0.236-0.162v4.227l0.33,0.218l0.98-0.704c10.179-7.303,18.461-15.156,23.876-26.361c5.387-11.146,7.867-25.525,6.443-45.858
                            l-0.16-2.272l-2.157,0.721c-5.083,1.702-9.938,1.938-14.606,0.938C112.37,15.812,107.827,13.542,103.416,10.246z"/>
                        <polygon fill-rule="evenodd" clip-rule="evenodd" fill="#FFFFFF" points="110.735,24.723 110.735,23.788 108.864,23.788 
                            106.996,26.593 106.059,26.593 107.929,22.854 106.996,20.049 103.254,21.918 103.254,24.723 102.321,24.723 102.321,21.918 
                            101.386,20.984 100.449,20.984 100.449,23.788 99.517,26.593 99.517,27.528 95.776,27.528 95.776,28.462 94.841,29.398 
                            95.776,31.267 95.776,32.201 93.905,32.201 92.972,33.138 92.038,34.071 92.038,35.007 92.972,35.007 93.905,34.071 96.711,34.071 
                            96.711,35.007 95.776,35.007 95.776,35.942 92.972,35.942 92.972,36.876 92.038,36.876 91.1,37.81 90.166,37.81 90.166,36.876 
                            87.362,36.876 86.426,35.942 85.493,35.942 85.493,35.007 84.56,34.071 85.493,34.071 85.493,31.267 82.688,31.267 81.753,32.201 
                            80.818,32.201 79.885,33.138 78.013,33.138 78.013,34.071 77.079,34.071 77.079,35.942 78.013,35.942 78.013,37.81 77.079,38.748 
                            78.013,39.681 78.013,40.616 78.013,39.681 78.948,38.748 80.818,38.748 80.818,39.681 82.688,39.681 82.688,40.616 83.622,40.616 
                            84.56,41.551 85.493,41.551 85.493,42.486 87.362,42.486 87.362,45.292 86.426,46.226 86.426,47.161 85.493,48.093 85.493,49.03 
                            84.56,48.093 83.622,47.161 82.688,47.161 81.753,46.226 81.753,47.161 78.948,47.161 78.948,48.093 78.013,48.093 78.013,49.03 
                            78.948,48.093 78.948,49.03 78.013,49.966 78.013,51.836 78.948,52.771 78.948,51.836 78.948,53.705 79.885,53.705 80.818,52.771 
                            81.753,53.705 82.688,53.705 81.753,54.639 82.688,54.639 82.688,53.705 87.362,53.705 87.362,52.771 90.166,52.771 91.1,51.836 
                            92.038,51.836 92.038,50.901 92.972,49.966 93.905,49.03 94.841,48.093 96.711,48.093 96.711,49.03 99.517,49.03 98.581,49.966 
                            96.711,49.966 95.776,50.901 94.841,51.836 93.905,52.771 92.972,53.705 92.972,54.639 92.038,54.639 92.972,55.573 93.905,56.509 
                            94.841,57.446 94.841,58.38 91.1,58.38 91.1,57.446 90.166,56.509 88.297,56.509 88.297,55.573 86.426,55.573 86.426,56.509 
                            85.493,56.509 85.493,57.446 86.426,56.509 87.362,57.446 85.493,57.446 85.493,58.38 84.56,58.38 84.56,59.313 83.622,60.249 
                            83.622,63.053 84.56,63.053 84.56,61.183 85.493,61.183 85.493,60.249 85.493,61.183 86.426,61.183 85.493,61.183 85.493,63.053 
                            99.517,63.053 99.517,60.249 100.449,59.313 101.386,58.38 101.386,55.573 103.254,55.573 104.189,54.639 104.189,55.573 
                            105.125,55.573 105.125,58.38 104.189,59.313 104.189,60.249 103.254,60.249 104.189,61.183 105.125,61.183 106.059,62.119 
                            107.929,62.119 108.864,63.053 110.735,63.053 111.667,62.119 112.604,62.119 112.604,64.924 111.667,64.924 111.667,65.856 
                            110.735,65.856 110.735,64.924 107.929,64.924 106.996,65.856 106.059,65.856 105.125,66.792 105.125,68.664 104.189,68.664 
                            104.189,70.532 104.189,69.599 106.059,69.599 106.059,70.532 112.604,70.532 114.474,69.599 115.407,69.599 116.344,68.664 
                            116.344,67.727 117.278,66.792 117.278,64.924 118.212,63.987 118.212,63.053 119.146,61.183 120.083,60.249 121.018,59.313 
                            121.018,57.446 120.083,57.446 120.083,56.509 119.146,56.509 120.083,55.573 121.018,54.639 121.952,53.705 121.952,49.966 
                            121.018,49.03 121.018,44.355 120.083,44.355 119.146,43.421 119.146,42.486 118.212,42.486 117.278,41.551 116.344,41.551 
                            116.344,40.616 117.278,40.616 117.278,39.681 118.212,38.748 119.146,37.81 120.083,37.81 120.083,40.616 121.952,40.616 
                            122.889,41.551 122.889,43.421 123.823,44.355 124.757,44.355 124.757,41.551 125.691,40.616 127.562,40.616 128.496,39.681 
                            128.496,38.748 125.691,38.748 125.691,37.81 123.823,37.81 123.823,36.876 122.889,36.876 121.952,35.942 121.018,35.942 
                            121.018,35.007 121.952,34.071 122.889,34.071 122.889,32.201 123.823,31.267 123.823,28.462 122.889,26.593 121.952,25.659 
                            115.407,25.659 114.474,26.593 113.539,26.593 113.539,27.528 112.604,27.528 111.667,28.462 110.735,28.462 110.735,29.398 
                            108.864,29.398 108.864,30.331 109.799,31.267 111.667,31.267 111.667,33.138 112.604,34.071 112.604,35.007 113.539,34.071 
                            113.539,33.138 114.474,32.201 114.474,31.267 117.278,31.267 117.278,30.331 116.344,30.331 116.344,27.528 120.083,27.528 
                            121.018,28.462 121.018,32.201 120.083,32.201 120.083,33.138 119.146,34.071 118.212,34.071 118.212,35.007 112.604,35.007 
                            111.667,35.942 110.735,37.81 110.735,46.226 111.667,45.292 115.407,45.292 116.344,46.226 117.278,46.226 117.278,47.161 
                            118.212,48.093 119.146,49.03 120.083,49.966 120.083,52.771 119.146,52.771 119.146,53.705 117.278,53.705 116.344,52.771 
                            115.407,52.771 110.735,48.093 109.799,47.161 108.864,46.226 106.996,43.421 107.929,43.421 108.864,42.486 108.864,40.616 
                            109.799,37.81 109.799,34.071 108.864,32.201 107.929,30.331 106.996,29.398 107.929,29.398 108.864,28.462 108.864,27.528 
                            109.799,26.593 110.735,25.659 "/>
                        <path fill-rule="evenodd" clip-rule="evenodd" d="M149.979,59.765V38.387h32.264c1.458,0,2.828,0.268,4.109,0.807
                            c1.282,0.541,2.398,1.283,3.346,2.23c0.947,0.948,1.695,2.056,2.252,3.323c0.553,1.27,0.827,2.642,0.827,4.131
                            c0,1.486-0.274,2.886-0.827,4.199c-0.557,1.312-1.305,2.462-2.252,3.451c-0.947,0.993-2.063,1.779-3.346,2.362
                            c-1.281,0.583-2.651,0.874-4.109,0.874h-18.362l4.286-4.722h6.163c1.661,0,3.098-0.548,4.309-1.639
                            c1.206-1.093,1.813-2.485,1.813-4.177c0-1.688-0.591-3.096-1.77-4.218c-1.182-1.122-2.602-1.683-4.265-1.683h-11.059v16.438H149.979
                            z"/>
                        <path fill-rule="evenodd" clip-rule="evenodd" d="M103.594,59.765V38.387h32.265c1.457,0,2.826,0.268,4.108,0.807
                            c1.282,0.541,2.398,1.283,3.344,2.23c0.947,0.948,1.697,2.056,2.253,3.323c0.555,1.27,0.828,2.642,0.828,4.131
                            c0,1.486-0.273,2.886-0.828,4.199c-0.556,1.312-1.306,2.462-2.253,3.451c-0.945,0.993-2.062,1.779-3.344,2.362
                            s-2.651,0.874-4.108,0.874h-18.362l4.284-4.722h6.165c1.66,0,3.093-0.548,4.305-1.639c1.211-1.093,1.814-2.485,1.814-4.177
                            c0-1.688-0.59-3.096-1.77-4.218c-1.184-1.122-2.603-1.683-4.264-1.683h-11.062v16.438H103.594z"/>
                        <path fill-rule="evenodd" clip-rule="evenodd" d="M100.097,38.387H67.788c-1.484,0-2.884,0.276-4.196,0.83s-2.455,1.304-3.431,2.25
                            c-0.979,0.948-1.75,2.07-2.317,3.367c-0.569,1.3-0.854,2.688-0.854,4.176s0.285,2.884,0.854,4.197
                            c0.567,1.313,1.338,2.448,2.317,3.409c0.977,0.961,2.119,1.727,3.431,2.296c1.312,0.568,2.711,0.853,4.196,0.853h28.068l4.284-4.722
                            H77.145c-0.846,0-1.632-0.152-2.361-0.458c-0.729-0.308-1.363-0.729-1.901-1.267c-0.541-0.541-0.969-1.175-1.29-1.903
                            c-0.322-0.729-0.48-1.501-0.48-2.317c0-1.662,0.588-3.04,1.77-4.131c1.179-1.095,2.6-1.642,4.262-1.642h18.666L100.097,38.387z"/>
                        <polygon fill-rule="evenodd" clip-rule="evenodd" fill="#000002" points="72.466,51.459 90.084,51.459 93.715,47.261 76.619,47.261 
                            "/>
                        <path fill-rule="evenodd" clip-rule="evenodd" d="M56.378,59.722l-10.36-8.263h2.185c0.931,0,1.815-0.161,2.645-0.483
                            c0.831-0.319,1.551-0.763,2.164-1.333c0.613-0.567,1.092-1.252,1.442-2.054c0.35-0.802,0.525-1.669,0.525-2.601
                            c0-0.933-0.181-1.807-0.546-2.624c-0.365-0.816-0.853-1.514-1.464-2.098c-0.612-0.583-1.327-1.043-2.143-1.378
                            c-0.816-0.336-1.691-0.501-2.623-0.501H12.091v21.377h13.29V43.327h12.241c0.847,0,1.474,0.205,1.88,0.61
                            c0.408,0.41,0.613,0.863,0.613,1.357c0,0.494-0.211,0.949-0.634,1.356c-0.422,0.408-1.041,0.612-1.858,0.612h-9.705l14.864,12.46
                            H56.378z"/>
                        <path fill-rule="evenodd" clip-rule="evenodd" d="M62.895,76.264l-2.684-2.141h0.566c0.241,0,0.471-0.041,0.685-0.124
                            c0.214-0.083,0.402-0.197,0.561-0.346c0.16-0.148,0.284-0.325,0.375-0.533c0.091-0.206,0.135-0.431,0.135-0.671
                            c0-0.242-0.047-0.471-0.141-0.681c-0.096-0.212-0.221-0.393-0.38-0.544c-0.158-0.15-0.343-0.271-0.555-0.356
                            c-0.211-0.087-0.438-0.131-0.679-0.131H51.42v5.537h3.442v-4.26h3.173c0.219,0,0.381,0.057,0.487,0.16
                            c0.106,0.106,0.158,0.224,0.158,0.353s-0.053,0.244-0.164,0.352c-0.111,0.104-0.27,0.158-0.481,0.158H55.52l3.851,3.227H62.895
                            L62.895,76.264z M69.295,70.737v1.277H68.32c-0.218,0-0.424,0.043-0.611,0.12c-0.19,0.081-0.359,0.187-0.506,0.325
                            c-0.146,0.135-0.261,0.297-0.345,0.48c-0.082,0.184-0.125,0.385-0.125,0.593c0,0.439,0.157,0.804,0.469,1.09
                            c0.314,0.286,0.689,0.431,1.128,0.431h0.964v1.221h-3.117c-0.383,0-0.748-0.069-1.091-0.207c-0.344-0.141-0.645-0.338-0.902-0.591
                            c-0.256-0.251-0.458-0.555-0.606-0.907c-0.147-0.351-0.22-0.736-0.22-1.158c0-0.385,0.076-0.74,0.227-1.066
                            c0.151-0.324,0.354-0.607,0.612-0.847c0.257-0.243,0.554-0.431,0.895-0.562c0.339-0.132,0.703-0.199,1.086-0.199H69.295
                            L69.295,70.737z M42.95,72.015h3.782c0.173,0,0.302,0.057,0.385,0.16c0.082,0.106,0.124,0.224,0.124,0.353s-0.042,0.244-0.124,0.352
                            c-0.083,0.104-0.212,0.158-0.385,0.158h-2.514l-1.054,1.086h5.163c0.681,0,1.213-0.155,1.599-0.463
                            c0.384-0.311,0.582-0.687,0.59-1.133c0-0.498-0.173-0.921-0.516-1.271c-0.345-0.346-0.905-0.52-1.683-0.52h-8.755v5.537h3.387
                            V72.015L42.95,72.015z M76.022,76.274v-5.537h3.262l2.741,2.615l2.708-2.615h3.181v5.537h-3.386v-3.341l-2.502,2.413l-2.55-2.413
                            v3.341H76.022L76.022,76.274z M69.295,76.274h3.068c0.378,0,0.735-0.076,1.072-0.231c0.335-0.154,0.628-0.363,0.877-0.628
                            c0.249-0.264,0.444-0.57,0.589-0.918c0.143-0.347,0.214-0.713,0.214-1.1c0-0.381-0.071-0.738-0.214-1.064
                            c-0.145-0.323-0.338-0.605-0.584-0.842c-0.246-0.24-0.534-0.424-0.867-0.555c-0.332-0.132-0.688-0.199-1.065-0.199h-3.09v1.277
                            h0.985c0.218,0,0.424,0.04,0.617,0.115c0.193,0.077,0.361,0.18,0.505,0.307c0.142,0.127,0.254,0.282,0.333,0.463
                            c0.079,0.181,0.12,0.384,0.12,0.602c0,0.447-0.153,0.814-0.459,1.111c-0.306,0.293-0.674,0.441-1.106,0.441h-0.995V76.274
                            L69.295,76.274z M94.767,70.737v1.277h-0.974c-0.219,0-0.423,0.043-0.611,0.12c-0.189,0.081-0.358,0.187-0.505,0.325
                            c-0.147,0.135-0.263,0.297-0.344,0.48c-0.084,0.184-0.125,0.385-0.125,0.593c0,0.439,0.156,0.804,0.469,1.09
                            s0.689,0.431,1.129,0.431h0.96v1.221h-3.115c-0.384,0-0.749-0.069-1.094-0.207c-0.342-0.141-0.644-0.338-0.899-0.591
                            c-0.257-0.251-0.458-0.555-0.606-0.907c-0.147-0.351-0.22-0.736-0.22-1.158c0-0.385,0.074-0.74,0.225-1.066
                            c0.152-0.324,0.355-0.607,0.612-0.847c0.257-0.243,0.558-0.431,0.896-0.562c0.337-0.132,0.702-0.199,1.086-0.199H94.767
                            L94.767,70.737z M113.239,70.737h3.433v5.537h-3.433V70.737L113.239,70.737z M112.334,70.737h-8.041
                            c-0.386,0-0.748,0.07-1.087,0.211c-0.341,0.139-0.637,0.328-0.889,0.572c-0.254,0.241-0.454,0.526-0.601,0.859
                            c-0.147,0.333-0.222,0.69-0.222,1.076c0,0.385,0.074,0.75,0.222,1.093c0.147,0.341,0.347,0.642,0.601,0.894
                            c0.252,0.254,0.548,0.458,0.889,0.607c0.34,0.15,0.702,0.225,1.087,0.225h6.918l1.134-1.221h-6.072c-0.43,0-0.792-0.153-1.086-0.455
                            c-0.294-0.301-0.443-0.668-0.443-1.098c0-0.431,0.149-0.783,0.443-1.064c0.294-0.28,0.656-0.422,1.086-0.422h4.882L112.334,70.737
                            L112.334,70.737z M94.767,76.274h3.071c0.377,0,0.734-0.076,1.07-0.231c0.336-0.154,0.629-0.363,0.877-0.628
                            c0.249-0.264,0.446-0.57,0.587-0.918c0.145-0.347,0.216-0.713,0.216-1.1c0-0.381-0.072-0.738-0.216-1.064
                            c-0.142-0.323-0.336-0.605-0.583-0.842c-0.244-0.24-0.533-0.424-0.865-0.555c-0.332-0.132-0.688-0.199-1.067-0.199h-3.091v1.277
                            h0.987c0.217,0,0.421,0.04,0.616,0.115c0.193,0.077,0.362,0.18,0.505,0.307c0.142,0.127,0.254,0.282,0.333,0.463
                            s0.12,0.384,0.12,0.602c0,0.447-0.154,0.814-0.46,1.111c-0.306,0.293-0.673,0.441-1.104,0.441h-0.998V76.274L94.767,76.274z
                            M123.525,70.737v1.277h-0.976c-0.217,0-0.422,0.043-0.61,0.12c-0.189,0.081-0.355,0.187-0.503,0.325
                            c-0.147,0.135-0.265,0.297-0.349,0.48c-0.081,0.184-0.121,0.385-0.121,0.593c0,0.439,0.155,0.804,0.47,1.09
                            c0.313,0.286,0.688,0.431,1.126,0.431h0.963v1.221h-3.115c-0.384,0-0.749-0.069-1.094-0.207c-0.342-0.141-0.642-0.338-0.901-0.591
                            c-0.255-0.251-0.455-0.555-0.604-0.907c-0.146-0.351-0.222-0.736-0.222-1.158c0-0.385,0.077-0.74,0.226-1.066
                            c0.151-0.324,0.356-0.607,0.614-0.847c0.256-0.243,0.554-0.431,0.895-0.562c0.338-0.132,0.702-0.199,1.086-0.199H123.525
                            L123.525,70.737z M154.661,76.274h9.515l1.134-1.221h-7.183v-4.316h-3.466V76.274L154.661,76.274z M143.856,70.737h9.899v5.537
                            h-3.477v-2.151h-4.235l1.041-1.086h3.194v-1.022h-3.851c-0.349,0-0.522,0.206-0.522,0.613v3.646h-3.466v-4.167
                            c0-0.379,0.136-0.699,0.413-0.969C143.13,70.87,143.466,70.737,143.856,70.737L143.856,70.737z M130.252,70.737h3.287l4.508,3.364
                            v-3.364h3.485v5.537h-3.338l-4.557-3.464v3.464h-3.386V70.737L130.252,70.737z M123.525,76.274h3.071
                            c0.378,0,0.731-0.076,1.068-0.231c0.334-0.154,0.629-0.363,0.877-0.628c0.249-0.264,0.446-0.57,0.59-0.918
                            c0.145-0.347,0.216-0.713,0.216-1.1c0-0.381-0.071-0.738-0.216-1.064c-0.144-0.323-0.338-0.605-0.583-0.842
                            c-0.244-0.24-0.534-0.424-0.866-0.555c-0.333-0.132-0.688-0.199-1.066-0.199h-3.091v1.277h0.985c0.219,0,0.425,0.04,0.617,0.115
                            c0.193,0.077,0.361,0.18,0.504,0.307c0.144,0.127,0.254,0.282,0.334,0.463c0.079,0.181,0.12,0.384,0.12,0.602
                            c0,0.447-0.153,0.814-0.459,1.111c-0.306,0.293-0.676,0.441-1.104,0.441h-0.997V76.274z"/>
                    </svg>